<?xml version="1.0" encoding="UTF-8"?><svg id="_圖層_2" xmlns="http://www.w3.org/2000/svg" viewBox="0 0 40 40"><defs><style>.cls-1{fill:none;}</style></defs><g id="_圖層_1-2"><g><rect class="cls-1" width="40" height="40"/><path d="M22.54,23.98c-.04,.75,.14,7.25,.04,8.44-.08,1.03-.62,1.83-1.6,2.17-.99,.34-2.03,.13-2.77-.62-.54-.55-.79-1.33-.74-2.09,.1-1.72,.02-6.06,.11-7.78,0-.11,0-.23,0-.39-.22,.07-.41,.12-.59,.19-1.74,.66-3.48,1.32-5.22,1.98-.66,.25-1.2,.03-1.49-.61-.26-.56-.19-1.11,.09-1.64,1.17-2.23,2.35-4.47,3.52-6.7,1.8-3.44,3.61-6.88,5.4-10.32,.25-.47,.54-.9,1.02-1.16,.79-.43,1.64-.15,2.12,.78,.36,.69,.62,1.43,.9,2.15,2.13,5.4,4.25,10.8,6.38,16.2,.23,.58,.28,1.15-.04,1.71-.36,.63-.92,.8-1.57,.47-1.64-.83-3.27-1.67-4.91-2.5-.19-.1-.4-.18-.64-.29Z"/></g></g></svg>