<?xml version="1.0" encoding="UTF-8"?><svg id="_圖層_2" xmlns="http://www.w3.org/2000/svg" viewBox="0 0 40 40"><defs><style>.cls-1{fill:none;}</style></defs><g id="_圖層_1-2"><g><rect class="cls-1" width="40" height="40"/><path d="M37.17,19.38c-1.44-1.38-2.88-2.75-4.33-4.12-.17-.16-.25-.34-.25-.6,0-3.22,0-6.44,0-9.66,0-.75-.23-1.01-.88-1.01-1.27,0-2.54,0-3.8,0-.69,0-.9,.25-.91,1.05,0,1.41,0,2.82,0,4.23,0,.11-.01,.22-.02,.37-.08-.07-.12-.09-.16-.12-1.71-1.63-3.41-3.28-5.12-4.9-1-.95-2.4-.95-3.4-.01-1.13,1.06-2.25,2.15-3.37,3.22-1.69,1.61-3.39,3.22-5.09,4.84-2.21,2.11-4.43,4.22-6.63,6.34-.31,.3-.57,.66-.86,1v.45c.5,.7,.99,1.4,1.5,2.08,.3,.39,.63,.41,1,.12,.16-.13,.31-.28,.46-.43,.69-.66,1.38-1.32,2.08-1.98,0,4.57,0,9.13,0,13.7,0,1.39,.56,2.14,1.57,2.14,2.63,0,5.26,0,7.89,0h.33v-.55c0-3.51,0-7.02,0-10.53,0-.34,.07-.43,.32-.43,1.66,.01,3.33,0,4.99,0,.09,0,.18,.01,.31,.02v11.45c.09,.02,.13,.03,.16,.03,2.74,0,5.49,0,8.23,0,.83,0,1.4-.8,1.4-1.94,0-4.64,0-9.28,0-13.92,.8,.77,1.61,1.54,2.41,2.31,.49,.47,.85,.42,1.25-.14,.46-.64,.92-1.3,1.38-1.94v-.45c-.16-.21-.29-.45-.47-.63Z"/></g></g></svg>