<?xml version="1.0" encoding="UTF-8"?><svg id="_圖層_2" xmlns="http://www.w3.org/2000/svg" viewBox="0 0 40 40"><defs><style>.cls-1{fill:none;}</style></defs><g id="_圖層_1-2"><g><rect class="cls-1" width="40" height="40"/><g><path d="M14.44,3.23c.84,.46,1.09,1.25,1.16,2.12,.15,1.73,.28,3.45,.4,5.18,.02,.26,0,.53-.04,.79-.1,.8-.55,1.3-1.35,1.46-.56,.12-1.11,.22-1.67,.31-.54,.09-.88,.41-1.08,.89-.26,.65-.33,1.32-.2,2.02,.76,3.96,2.56,7.4,5.21,10.41,.54,.61,1.17,1.15,1.81,1.66,.41,.33,.93,.45,1.46,.47,.38,.01,.71-.11,.97-.4,.36-.39,.72-.77,1.08-1.16,.73-.79,1.46-.92,2.39-.36,.5,.3,.96,.67,1.44,1.02,.89,.66,1.77,1.32,2.66,1.99,.23,.17,.45,.35,.66,.54,.58,.52,1.03,1.11,.98,1.94-.06,.21-.12,.41-.18,.62-.28,.45-.52,.93-.84,1.36-1.42,1.89-3.3,2.89-5.67,2.9-.47,0-.95-.08-1.42-.13-.36-.1-.72-.21-1.07-.31-.42-.2-.84-.38-1.24-.59-2.04-1.07-3.67-2.63-5.15-4.36-1.77-2.07-3.24-4.36-4.56-6.73-1.62-2.91-3.04-5.91-3.93-9.14-.49-1.79-.79-3.62-.68-5.48,.03-.54,.12-1.09,.19-1.63,.1-.36,.21-.72,.31-1.07,.04-.08,.09-.15,.12-.23,1.09-2.57,3.07-3.95,5.81-4.27,.59-.07,1.2,0,1.81,0,.21,.06,.41,.12,.62,.18Z"/><path d="M31.14,25.17c-.08,0-.16,0-.24-.01-.91-.08-1.43-1.06-.99-1.86,.27-.49,.56-.96,.8-1.47,.86-1.79,1.25-3.69,1.22-5.68-.02-1.09-.17-2.17-.46-3.22-.78-2.76-2.29-5.03-4.56-6.78-.32-.25-.67-.46-.99-.7-.69-.5-.69-1.53,0-2.02,.1-.07,.21-.12,.32-.18,.09-.02,.18-.04,.27-.06,.03,0,.05,0,.08,0,.26,0,.5,.05,.72,.19,1.55,.98,2.88,2.2,3.99,3.66,1.14,1.5,1.98,3.16,2.51,4.97,.05,.17,.1,.33,.15,.5,.07,.32,.14,.64,.21,.96,0,.05,0,.09,.01,.14,.17,.91,.25,1.83,.25,2.75-.01,2.94-.8,5.66-2.36,8.16-.15,.25-.35,.43-.62,.54-.02,0-.03,.02-.05,.03-.09,.02-.18,.04-.27,.06Z"/><path d="M29.7,13.77c.68,3.28,.2,6.17-1.46,8.85-.26,.43-.65,.65-1.15,.61-.49-.03-.85-.28-1.05-.72-.19-.42-.15-.83,.09-1.22,.3-.48,.55-.98,.76-1.5,.48-1.22,.68-2.48,.61-3.79-.04-.79-.18-1.56-.43-2.31-.66-1.98-1.85-3.56-3.59-4.73-.24-.16-.47-.34-.6-.61-.24-.49-.13-1.09,.28-1.46,.4-.37,1.01-.45,1.47-.16,.78,.48,1.49,1.06,2.13,1.71,1.11,1.13,1.94,2.44,2.5,3.92,.2,.52,.34,1.07,.45,1.4Z"/><path d="M25.34,15.12c.36,1.72,.06,3.49-.95,5.13-.37,.6-1.13,.78-1.72,.42-.58-.36-.78-1.11-.42-1.71,.47-.77,.74-1.6,.71-2.5-.04-1.55-.69-2.79-1.96-3.69-.24-.17-.46-.34-.59-.61-.23-.49-.13-1.08,.27-1.45,.4-.38,1-.46,1.47-.17,.62,.37,1.16,.85,1.64,1.4,.76,.89,1.25,1.9,1.55,3.19Z"/></g></g></g></svg>