<?xml version="1.0" encoding="UTF-8"?><svg id="_圖層_2" xmlns="http://www.w3.org/2000/svg" xmlns:xlink="http://www.w3.org/1999/xlink" viewBox="0 0 369 248"><defs><style>.cls-1{fill:#fff;filter:url(#drop-shadow-1);}</style><filter id="drop-shadow-1" filterUnits="userSpaceOnUse"><feOffset dx="0" dy="0"/><feGaussianBlur result="blur" stdDeviation="5"/><feFlood flood-color="#000" flood-opacity="1"/><feComposite in2="blur" operator="in"/><feComposite in="SourceGraphic"/></filter></defs><g id="_字"><path class="cls-1" d="M57.33,133.27h7.16v7.96h17.11v4.38h-17.11v5.17h1.99c0,2.13-.4,5.04-1.19,8.75v2.39h15.52v4.38h-16.71c-1.86,5.57-5.31,11.67-10.34,18.3h-2.39v1.59h-7.16v-3.98h-4.38v9.55h13.53v3.98H27.89v1.99h1.99v3.58h37.4v-3.58h7.56v27.85h8.36v4.38H15.16v-4.38h7.56v-27.06h-1.99v-46.55h7.16v2.39h25.46v3.58h-13.53v9.15h4.38v-3.98h7.16v21.09c4.77-5.04,7.16-15.91,7.16-32.63h-1.19v-5.97h-14.72v5.97h-7.16v-5.57H15.95v-4.38h19.5v-7.96h7.16v7.96h14.72v-8.36Zm-24.27,24.67h-5.17v9.15h5.17v-9.15Zm-5.17,13.13v7.16h16.31v-7.16H27.89Zm5.17,11.14h-5.17v9.55h5.17v-9.55Zm4.38,23.47h-7.56v19.89h7.56v-19.89Zm14.32,0h-7.16v19.89h7.16v-19.89Zm7.16,0v19.89h8.36v-19.89h-8.36Zm3.18-31.03l.4-.4c5.3,3.45,9.28,6.37,11.94,8.75-.8,3.45-1.99,6.37-3.58,8.75-3.18-3.98-6.11-9.68-8.75-17.11Zm41.73,29.44c-4.25-5.57-7.16-9.01-8.75-10.34l-.8,.8c4.77,14.32,9.41,25.86,13.93,34.62,1.06-1.86,2.52-5.71,4.38-11.54-1.86-2.92-3.32-5.3-4.38-7.16,1.06-6.1,2.12-12.33,3.18-18.7,2.12-13.53,4.11-23.74,5.97-30.64h-.8c-7.96,27.32-12.2,41.65-12.73,42.97Zm3.98-34.22c-3.45-3.44-7.16-7.02-11.14-10.74-.8-.26-1.33-.4-1.59-.4,0,.27,.13,.67,.4,1.19,3.18,9.82,6.23,16.85,9.15,21.09,1.32-3.18,2.39-6.89,3.18-11.14Zm5.57-25.46c-1.06-.53-3.85-2.39-8.36-5.57-1.86-1.32-3.45-2.52-4.77-3.58-.8-.26-.93,0-.4,.8,2.92,6.63,6.76,13,11.54,19.1,.8-3.18,1.45-6.76,1.99-10.74Zm-3.98,18.3h3.18c1.59-1.59,3.98-4.24,7.16-7.96,3.44-3.44,6.1-6.1,7.96-7.96h33.42v-3.98h-31.43c.8-2.39,1.45-5.57,1.99-9.55h-9.55c-.53,10.34-4.77,20.16-12.73,29.44Zm53.24,25.39c0-1.28,0-2.55,0-3.83-2.08-.05-4.16-.1-6.24-.15-.03-9.24-.06-18.48-.09-27.73-2.61,0-5.23,0-7.84,0l-.15,3.11c-6.18,0-12.36,0-18.54-.01,.08-1.03,.15-2.07,.23-3.1-2.61,0-5.22,0-7.83,0-.69,9.24-1.39,18.48-2.08,27.73-1.68,.05-3.37,.1-5.05,.15v3.83c1.53,.03,3.06,.06,4.59,.09-.25,0-1.23,14.95-1.33,16.32-.19,2.75-.37,5.5-.52,8.26-.08,1.38-.15,2.75-.22,4.13-.06,1.21-.36,2.68-.15,3.87,.18,1,1.21,1.28,2.15,1.26,1.76-.04,3.52-.07,5.28-.11,.18-1.69,.36-3.38,.53-5.07,7.68-.01,15.35-.03,23.03-.04,.2,3.45-1.78,6.75-4.42,8.98-2.72,2.3-7.19,4.76-10.24,6.43-.12,.07,.7,.45,.76,.46,.45,.1,.83,.08,1.29,.02,2.52-.36,5.04-.77,7.52-1.37,1.24-.3,2.47-.65,3.67-1.06,4.28-1.46,7.64-4.63,8.97-9.02,.43-1.41,.62-2.89,.55-4.36,1.78-.05,3.57-.09,5.35-.14,0-1.28,0-2.55,0-3.83-1.82-.05-3.65-.1-5.47-.15,0-8.17,0-16.35,0-24.52,2.09-.05,4.17-.1,6.26-.15Zm-14.25,24.74h-22.68l1.59-24.67h21.09v24.67Zm0-28.65h-20.69l1.59-20.69h19.1v20.69Zm-13.93-17.51c-.8-.26-1.06-.13-.8,.4,2.12,6.63,4.11,11.54,5.97,14.72,1.32-.8,2.65-3.18,3.98-7.16-2.65-2.65-5.71-5.3-9.15-7.96Zm.8,25.07c-1.06-.53-1.33-.4-.8,.4,1.06,7.43,2.25,13,3.58,16.71,2.39-2.65,3.98-5.3,4.77-7.96-1.59-2.39-4.12-5.43-7.56-9.15Zm76.89-42.44h4.14l-15.76,43.74h-6.96l-16.83-43.74h7.82l8.71,23.58c.66,1.77,1.3,3.59,1.94,5.47,.64,1.88,1.22,3.6,1.73,5.17,.6,1.82,1.17,3.62,1.71,5.38,.6-1.91,1.2-3.83,1.79-5.77,.51-1.65,1.07-3.41,1.69-5.28,.61-1.86,1.19-3.57,1.73-5.1l8.29-23.45Zm15.42,43.74v-43.74h7.13v43.74h-7.13Zm18.41,0v-43.74h7.13v40.41h15.42l-.43,3.33h-22.13Zm33.83,0v-43.74h7.13v40.41h15.42l-.43,3.33h-22.13Zm66.38,0l-5.47-16.02-16.83,.21-5.89,15.8h-4.36l17.34-43.36,6.32-1.5,16.23,44.85h-7.35Zm-6.36-18.88l-7.26-20.42-7.6,20.42h14.87Zm-107.02,35.03c-.32,1.96-1.04,3.83-2.16,5.61l-.62-.35c1.04-1.67,1.75-3.51,2.1-5.53l.68,.28Zm4.04,8.03c-1.05,0-1.76-.2-2.14-.61-.39-.4-.58-1.06-.58-1.97v-7.23h.77v7.17c0,.77,.16,1.29,.49,1.55,.34,.28,.88,.41,1.63,.41h1.64c.96,0,1.47-1.32,1.55-3.96l.77,.37c-.08,1.45-.28,2.52-.59,3.21-.31,.7-.88,1.05-1.72,1.05h-1.82Zm-1.35-13.22c1.53,1.24,2.8,2.52,3.82,3.85l-.62,.53c-.99-1.33-2.21-2.64-3.67-3.93l.47-.44Zm6.17,4.94c1,1.73,1.76,3.56,2.29,5.5l-.76,.31c-.53-1.92-1.25-3.78-2.16-5.56l.62-.25Zm18.67,7.74c.99,0,1.84-.02,2.57-.07l-.16,.73c-.58,.03-1.29,.04-2.11,.04-5.4,0-8.49-1.01-9.26-3.02-.56,1.16-1.18,2.18-1.85,3.06l-.55-.38c1.2-1.55,2.01-3.17,2.41-4.85l.68,.28c-.12,.4-.26,.8-.43,1.2,0,.24,.29,.64,.87,1.21,3.19-1.75,5.89-4.12,8.08-7.1h-10.69v-.67h11.58v.65c-.86,1.23-2.09,2.6-3.7,4.1-1.61,1.49-3.19,2.65-4.76,3.49,1.12,.88,3.56,1.32,7.32,1.33Zm-5.78-12.79c.7,.78,1.35,1.64,1.95,2.59l-.68,.37c-.56-.95-1.18-1.81-1.85-2.6l.58-.35Zm13.95,13.86l-.58-.41c.35-.58,.65-1.4,.87-2.44,.24-1.04,.35-3.42,.35-7.16v-2.48c1.95-.14,3.65-.56,5.09-1.27l.46,.44c-1.24,.64-2.88,1.09-4.91,1.35v1.98h4.45v4.16h-4.45c0,2.19-.43,4.14-1.29,5.84Zm1.3-6.46h3.82v-2.94h-3.82v2.94Zm12.01-2.71v.61h-2.4v8.59h-.67v-8.59h-2.66v.19c0,3.61-.94,6.42-2.81,8.43l-.53-.5c1.8-1.81,2.69-4.54,2.69-8.16v-3.99c2.35-.21,4.18-.62,5.5-1.23l.43,.53c-1.27,.56-3.03,.98-5.27,1.26v2.87h5.71Zm7.58-1.39c-1.1,.1-1.94,.17-2.51,.21l-.04-.61c.1,0,.22,0,.35-.02,.07,0,.19-.01,.37-.01,.53-.75,1.03-1.66,1.48-2.74l.58,.22c-.38,.95-.85,1.77-1.39,2.48,.38-.02,.66-.03,.84-.04,.24,0,.46-.03,.68-.06,.23-.26,.5-.68,.83-1.27l.53,.31c-.75,1.38-1.61,2.53-2.59,3.45,.22,0,.82-.08,1.82-.24,.18-.32,.32-.68,.43-1.09l.56,.15c-.48,2.1-1.87,3.71-4.16,4.82l-.3-.53c1.46-.65,2.51-1.56,3.15-2.74-1.03,.19-2.07,.32-3.12,.4l-.04-.59c.12,0,.25-.02,.38-.04,.08,0,.2-.02,.37-.03,.54-.45,1.13-1.13,1.77-2.03Zm3.55,3.77l.59,.21c-.15,.38-.33,.75-.56,1.09h5.86v4.04c0,.84-.46,1.26-1.38,1.26-.33,0-.76-.05-1.29-.15l-.07-.67c.53,.14,.99,.21,1.36,.21,.49,0,.74-.23,.74-.68v-3.43h-9.23v4.97h-.62v-5.55h3.94c.29-.38,.51-.82,.66-1.3Zm-1.35-5.87h1.76c-.22-.34-.46-.65-.74-.93l.44-.3c.46,.48,.79,.89,.98,1.23h1.48v3.52h-3.36v1.89c.89-.19,1.73-.4,2.51-.65-.18-.28-.35-.53-.53-.75l.47-.27c.52,.66,1,1.38,1.42,2.16l-.52,.34c-.34-.67-.54-1.01-.58-1.01-1.41,.44-2.76,.8-4.05,1.06l-.13-.59c.14-.03,.3-.06,.47-.09,.15-.03,.27-.05,.37-.07v-5.55Zm.1,10.98v.67h-.61v-3.06h4.9v2.81h-.61v-.41h-3.68Zm3.68-.56v-1.27h-3.68v1.27h3.68Zm-.43-9.85h-2.79v.86h2.79v-.86Zm-2.79,2.4h2.79v-1.01h-2.79v1.01Zm4.2,3.95v-7.41h3.71c-.43,1.21-.92,2.23-1.46,3.05,.84,.77,1.26,1.57,1.26,2.4s-.42,1.27-1.26,1.27c-.3,0-.61-.06-.95-.18l-.04-.65c.37,.15,.7,.22,.99,.22,.43,0,.65-.22,.65-.67,0-.86-.46-1.64-1.38-2.34,.54-.84,.98-1.68,1.3-2.53h-2.22v6.83h-.61Zm-115.55-.09l39.13,1.28v-2.56l-39.13,1.28Zm168.64,0l-39.13-1.28v2.56l39.13-1.28ZM187.46,15.63l-52.35,52.35,52.35,52.35,52.35-52.35L187.46,15.63Zm-49.62,52.35l49.62-49.62,49.62,49.62-49.62,49.62-49.62-49.62Zm35.54,35.08h28.16l-1.93,1.93h-24.29l-1.93-1.93Zm51.09-47.23v24.29l-1.93,1.93v-28.16l1.93,1.93Zm-74.03,0l1.93-1.93v28.16l-1.93-1.93v-24.29Zm49.16-24.87l1.93,1.93h-28.16l1.93-1.93h24.29Zm-29.87,72.1l1.93,1.93h-21.23v-21.23l1.93,1.93v17.37h17.37Zm-17.37-52.8l-1.93,1.93V30.96h21.23l-1.93,1.93h-17.37v17.37Zm70.17,35.44l1.93-1.93v21.23h-21.23l1.93-1.93h17.37v-17.37Zm-17.37-52.8l-1.93-1.93h21.23v21.23l-1.93-1.93v-17.37h-17.37Zm14.58,37.83c-.73-.9-1.46-1.79-2.18-2.69-1.1-1.36-2.21-2.71-3.31-4.07-.46-.56-.91-1.13-1.37-1.69-1.16-1.43-2.32-2.87-3.48-4.3-.51-.64-1.03-1.27-1.54-1.91-.53-.65-1.07-1.3-1.58-1.96-.13-.17-.25-.23-.45-.23-2.49,.03-4.97,.06-7.46,.08-.55,0-1.09,.03-1.64,.03-3.53,.04-7.06,.08-10.59,.12-1.68,.02-3.35,.04-5.03,.08-.14,0-.32,.1-.4,.21-.36,.48-.69,.98-1.03,1.47-.74,1.05-1.48,2.1-2.21,3.15-.12,.17-.24,.24-.45,.25-1.75,0-3.5,.03-5.25,.04-2.2,.02-4.4,.03-6.61,.06-.15,0-.36,.07-.45,.18-.64,.75-1.26,1.51-1.87,2.27-.38,.47-.73,.96-1.12,1.42-.53,.63-1.09,1.22-1.61,1.85-.59,.71-1.14,1.45-1.72,2.16-1.07,1.31-2.14,2.61-3.21,3.92-.05,.06-.08,.13-.14,.23,.15,.01,.26,.02,.37,.02,.63,0,1.26-.03,1.88,.01,.44,.03,.78-.08,1.02-.45,.04-.07,.09-.14,.14-.2,.91-1.11,1.82-2.21,2.74-3.32,.57-.69,1.13-1.37,1.7-2.05,.39-.47,.78-.95,1.17-1.42,.6-.73,1.2-1.45,1.79-2.18,.15-.19,.26-.18,.41,0,.2,.24,.43,.47,.64,.71,.68,.8,1.35,1.61,2.04,2.42,1.13,1.33,2.27,2.66,3.4,3.99,.46,.54,.97,1.06,1.39,1.63,.35,.47,.73,.67,1.35,.67,4.61-.03,9.22-.02,13.83-.02,.15,0,.31-.02,.51-.03-.7-.84-1.35-1.62-2.01-2.4-1.14-1.35-2.3-2.69-3.44-4.03-1.43-1.67-2.85-3.35-4.29-5.02-.16-.18-.16-.29-.02-.47,.55-.74,1.08-1.48,1.63-2.22,.25-.34,.5-.69,.78-1.07,.22,.24,.41,.45,.59,.66,.92,1.04,1.83,2.07,2.74,3.11,.62,.71,1.25,1.41,1.87,2.12,.67,.76,1.33,1.53,2,2.29,.63,.71,1.27,1.42,1.89,2.13,.62,.7,1.22,1.41,1.84,2.11,.72,.81,1.46,1.6,2.16,2.44,.16,.2,.3,.26,.53,.26,2.19-.03,4.38-.07,6.57-.09,3.75-.03,7.49-.06,11.24-.08,1.68-.01,3.36-.02,5.03-.03,.43,0,.85,0,1.35,0-.07-.1-.09-.14-.11-.17Zm-45.67,10.12c-.03-.06-.05-.12-.08-.17-.68-1.03-1.35-2.05-2.04-3.08-.68-1.02-1.38-2.04-2.06-3.07-.27-.4-.48-.82-1.1-.72-.29,.05-.35,.12-.35,.39,0,2.31,0,4.61,.01,6.92,0,.21,0,.41,0,.62,0,.07,.04,.18,.1,.2,.38,.17,.68-.05,.68-.46,0-2.02,0-4.03,0-6.05,0-.11,.03-.23,.06-.43,.11,.14,.17,.21,.22,.28,1.39,2.06,2.78,4.11,4.14,6.19,.25,.38,.52,.52,.95,.49,.29-.02,.39-.1,.39-.4-.01-2.46,0-4.92,0-7.38,0-.33,0-.33-.57-.35-.28,0-.21,.19-.21,.34,0,2.1,0,4.2,0,6.3,0,.1-.01,.2-.02,.29-.04,.02-.07,.05-.11,.07Zm10.85,1.08h5.08v-.69h-4.25v-3.04c.13,0,.24,0,.35,0,.98,0,1.95,0,2.93,0,.53,0,.59-.09,.49-.62,0-.03-.02-.05-.04-.11h-3.72v-2.89h4.25c0-.13,.01-.21,.02-.29q0-.45-.45-.45c-1.31,0-2.61,0-3.92,0-.23,0-.47,.02-.73,.04v8.05Zm18.38-3.52c-.16,.07-.27,.09-.35,.16-.76,.65-1.62,.68-2.49,.32-.81-.34-1.18-1.04-1.24-1.89-.06-.83,.08-1.61,.55-2.32,.82-1.24,2.93-1.21,3.69,.07,.3,.51,.45,1.06,.52,1.63,.15,1.17,.18,2.34-.09,3.5-.22,.97-.66,1.8-1.71,2.07-1.08,.27-1.74,.1-2.47-.8-.01-.02-.02-.04-.03-.05-.26-.38-.15-.61,.31-.65,.08,0,.23,.06,.26,.13,.41,.95,1.65,.96,2.22,.35,.65-.68,.75-1.56,.82-2.51Zm-3.34-1.81c.04,.26,.04,.53,.12,.79,.06,.21,.16,.43,.31,.59,.76,.78,2.44,.44,2.88-.56,.02-.05,.03-.1,.03-.15,0-.69-.08-1.37-.42-1.99-.5-.92-1.69-1.06-2.38-.28-.4,.46-.51,1.01-.54,1.61Zm6.73,4.07c.17-.08,.32-.18,.48-.21,.08-.02,.25,.05,.28,.12,.56,1.13,2.05,.9,2.49,0,.24-.49,.35-1.04,.5-1.57,.06-.2,.05-.42,.08-.69-.28,.18-.51,.34-.75,.48-.74,.43-1.49,.42-2.23,.02-1.14-.62-1.22-1.7-1.08-2.81,.1-.84,.48-1.54,1.24-1.99,.83-.48,2.26-.25,2.82,.49,.38,.51,.57,1.12,.64,1.75,.13,1.05,.21,2.12,0,3.17-.12,.6-.32,1.22-.65,1.74-.33,.53-.91,.83-1.58,.87-.59,.04-1.14-.04-1.61-.44-.28-.25-.54-.52-.65-.93Zm2.05-2.26c.62,0,1.13-.26,1.52-.73,.11-.13,.25-.29,.24-.43-.01-.67-.1-1.33-.41-1.94-.52-1.03-1.88-1.1-2.52-.13-.41,.61-.49,1.29-.35,2,.17,.84,.66,1.23,1.51,1.24Zm-46.35-4.28c-1.14-.51-2.3-.52-3.41,.07-1.11,.59-1.26,2.2-.32,2.88,.45,.33,1,.55,1.52,.78,.69,.31,1.44,.51,2.09,.88,.91,.51,.83,1.46,.24,1.99-.78,.72-1.75,.71-2.7,.47-.59-.15-.96-.61-1.15-1.19-.06-.19-.15-.28-.36-.16-.09,.05-.21,.06-.28,.12-.07,.06-.13,.18-.12,.25,.19,.92,1.19,1.79,2.12,1.82,.59,.01,1.19-.02,1.76-.12,.7-.12,1.32-.48,1.66-1.12,.52-.98,.28-2.13-.76-2.71-.51-.29-1.08-.5-1.62-.73-.56-.23-1.14-.41-1.67-.7-.24-.13-.47-.43-.53-.7-.14-.61,.23-1.13,.83-1.32,.6-.2,1.21-.19,1.83-.06,.48,.1,.85,.38,1.09,.79,.22,.39,.2,.4,.62,.23,.07-.03,.15-.07,.25-.12-.23-.59-.52-1.09-1.09-1.35Zm55.24,3.18c1.02-.95,.82-2.63-.39-3.27-1.27-.68-2.74-.14-3.28,1.19-.06,.14-.21,.28,.06,.39,.46,.17,.52,.18,.61-.12,.32-.97,1.12-1.08,1.88-.96,.34,.05,.64,.21,.81,.55,.58,1.2-.46,2.42-1.4,2.38-.23-.01-.47,0-.71,0v.74c.42,0,.81-.04,1.19,0,1.17,.13,1.76,1.49,1.07,2.45-.44,.61-1.49,.86-2.21,.57-.46-.19-.77-.51-.89-.99-.06-.22-.16-.27-.35-.16-.07,.04-.15,.06-.23,.08-.2,.05-.22,.16-.16,.35,.27,.84,.85,1.39,1.7,1.51,.82,.12,1.64,.06,2.36-.5,.96-.73,1.17-2.21,.38-3.12-.24-.28-.56-.48-.87-.74,.14-.12,.3-.23,.44-.36Zm-35.22-2.83c-.97-.9-2.81-.94-3.87-.14-.88,.67-1.41,1.55-1.59,2.64-.21,1.28-.14,2.52,.59,3.65,.47,.73,1.14,1.24,1.98,1.39,.6,.11,1.25,.1,1.84-.17,.82-.37,1.34-1,1.68-1.85-.25-.09-.46-.17-.67-.24-.1,.16-.18,.28-.25,.4-.44,.8-1.09,1.19-2.03,1.17-.96-.02-1.64-.51-2.01-1.29-.73-1.52-.67-3.05,.3-4.5,.94-1.42,3.26-1.43,3.97,.15,.03,.07,.16,.15,.23,.13,.2-.03,.39-.11,.69-.2-.32-.43-.53-.84-.85-1.14Zm12.58,3.46c0-1.25,0-2.51,0-3.76,0-.11-.09-.31-.13-.31-.17,0-.42,.02-.49,.13-.39,.63-.98,.87-1.66,.98-.14,.02-.29-.03-.29,.21,0,.25,.19,.21,.32,.21,.39,0,.78,0,1.17-.01,.21,0,.3,.06,.3,.28,0,1.84,0,3.68,0,5.52,0,.21-.02,.41,.01,.62,.05,.35,.34,.24,.54,.22,.09,0,.24-.17,.24-.26,.02-1.27,.01-2.55,.01-3.82,0,0,0,0-.01,0Zm-29.52-3.43c0,2.24,0,4.48,0,6.73,0,.17-.01,.35,.01,.52,.01,.07,.11,.18,.18,.18,.67,0,.59,.11,.59-.51,0-2.3,0-4.61,0-6.91,0-.71,.15-.75-.74-.61,0,.19-.03,.4-.03,.6Z"/></g></svg>